<svg width="263" height="801" viewBox="0 0 263 801" fill="none" xmlns="http://www.w3.org/2000/svg">
    <g opacity="0.6">
    <path d="M-33.3101 482.809C-33.3101 466.719 -34.0026 446.387 -34.7808 423.536C-36.4853 373.487 -38.6015 311.35 -34.7567 255.211C-31.957 214.334 -25.9993 176.727 -14.4546 149.359C-2.91107 121.993 14.131 105.035 39.0521 105.035C51.4449 105.035 64.2644 112.395 77.242 125.683C90.2076 138.959 103.246 158.067 116.071 181.361C141.72 227.943 166.455 291.146 188.038 357.58C209.618 424.008 228.038 493.64 241.063 553.067C254.092 612.514 261.708 661.692 261.708 687.239C261.708 699.735 253.461 710.943 238.525 720.996C223.6 731.041 202.125 739.84 175.976 747.536C123.686 762.926 52.883 773.855 -21.1186 781.584C-169.111 797.041 -329.759 799.69 -380.342 799.69C-386.656 799.69 -390.656 798.842 -392.76 797.366C-393.784 796.648 -394.34 795.794 -394.525 794.81C-394.714 793.806 -394.531 792.588 -393.921 791.136C-392.695 788.217 -389.837 784.571 -385.5 780.262C-381.177 775.967 -375.436 771.064 -368.512 765.631C-346.593 748.431 -312.956 726.026 -275.279 700.928C-265.332 694.302 -255.104 687.489 -244.735 680.534C-195.113 647.251 -142.298 610.745 -101.887 576.146C-81.6818 558.847 -64.5559 542.007 -52.4764 526.268C-40.4104 510.547 -33.3101 495.836 -33.3101 482.809Z" stroke="url(#paint0_linear_817_2849)" stroke-width="1.27675"/>
    <path d="M-61.9429 465.407C-61.9429 449.317 -62.6354 428.985 -63.4136 406.133C-65.1181 356.084 -67.2343 293.948 -63.3895 237.809C-60.5899 196.931 -54.6321 159.325 -43.0874 131.956C-31.5439 104.59 -14.5019 87.6328 10.4193 87.6328C22.8121 87.6328 35.6315 94.9922 48.6092 108.281C61.5748 121.557 74.6128 140.665 87.4384 163.958C113.087 210.541 137.822 273.744 159.405 340.178C180.985 406.606 199.406 476.238 212.43 535.665C225.459 595.111 233.076 644.29 233.076 669.837C233.076 682.333 224.828 693.541 209.892 703.593C194.968 713.639 173.492 722.438 147.343 730.134C95.0534 745.524 24.2502 756.452 -49.7514 764.182C-197.744 779.639 -358.392 782.287 -408.975 782.287C-415.289 782.287 -419.289 781.44 -421.393 779.963C-422.417 779.245 -422.973 778.392 -423.158 777.408C-423.347 776.404 -423.164 775.186 -422.554 773.733C-421.328 770.815 -418.47 767.168 -414.133 762.859C-409.809 758.564 -404.069 753.662 -397.145 748.229C-375.226 731.029 -341.589 708.623 -303.912 683.526C-293.965 676.9 -283.737 670.087 -273.368 663.132C-223.745 629.849 -170.931 593.343 -130.52 558.744C-110.315 541.445 -93.1888 524.605 -81.1093 508.866C-69.0432 493.145 -61.9429 478.434 -61.9429 465.407Z" stroke="url(#paint1_linear_817_2849)" stroke-width="1.27675"/>
    <path d="M-90.5679 448.014C-90.5679 431.924 -91.2604 411.592 -92.0386 388.74C-93.7431 338.692 -95.8593 276.555 -92.0145 220.416C-89.2149 179.539 -83.2571 141.932 -71.7124 114.564C-60.1689 87.1978 -43.1269 70.2401 -18.2057 70.2401C-5.81293 70.2401 7.00655 77.5995 19.9842 90.8879C32.9498 104.164 45.9878 123.272 58.8134 146.566C84.4621 193.148 109.197 256.351 130.78 322.785C152.36 389.213 170.781 458.845 183.805 518.272C196.834 577.718 204.451 626.897 204.451 652.444C204.451 664.94 196.203 676.148 181.267 686.201C166.343 696.246 144.867 705.045 118.718 712.741C66.4284 728.131 -4.37478 739.06 -78.3764 746.789C-226.369 762.246 -387.017 764.895 -437.6 764.895C-443.914 764.895 -447.914 764.047 -450.018 762.571C-451.042 761.852 -451.598 760.999 -451.783 760.015C-451.972 759.011 -451.789 757.793 -451.179 756.341C-449.953 753.422 -447.095 749.776 -442.758 745.467C-438.434 741.172 -432.694 736.269 -425.77 730.836C-403.851 713.636 -370.214 691.23 -332.537 666.133C-322.59 659.507 -312.362 652.694 -301.993 645.739C-252.37 612.456 -199.556 575.95 -159.145 541.351C-138.94 524.052 -121.814 507.212 -109.734 491.473C-97.6682 475.752 -90.5679 461.041 -90.5679 448.014Z" stroke="url(#paint2_linear_817_2849)" stroke-width="1.27675"/>
    <path d="M-119.189 430.627C-119.189 414.537 -119.881 394.205 -120.66 371.353C-122.364 321.304 -124.48 259.167 -120.636 203.029C-117.836 162.151 -111.878 124.545 -100.334 97.176C-88.79 69.8102 -71.748 52.8525 -46.8268 52.8525C-34.434 52.8525 -21.6145 60.212 -8.63693 73.5004C4.32869 86.7765 17.3667 105.884 30.1923 129.178C55.841 175.761 80.5761 238.963 102.159 305.397C123.739 371.825 142.16 441.458 155.184 500.884C168.213 560.331 175.829 609.509 175.829 635.056C175.829 647.553 167.582 658.761 152.646 668.813C137.721 678.858 116.246 687.658 90.0969 695.354C37.8073 710.744 -32.9959 721.672 -106.997 729.401C-254.99 744.859 -415.638 747.507 -466.221 747.507C-472.535 747.507 -476.535 746.659 -478.639 745.183C-479.663 744.465 -480.219 743.612 -480.404 742.628C-480.593 741.623 -480.41 740.406 -479.8 738.953C-478.574 736.035 -475.716 732.388 -471.379 728.079C-467.055 723.784 -461.315 718.881 -454.391 713.449C-432.472 696.249 -398.835 673.843 -361.158 648.746C-351.211 642.12 -340.983 635.306 -330.614 628.351C-280.992 595.068 -228.177 558.563 -187.766 523.964C-167.561 506.665 -150.435 489.825 -138.355 474.086C-126.289 458.365 -119.189 443.654 -119.189 430.627Z" stroke="url(#paint3_linear_817_2849)" stroke-width="1.27675"/>
    <path d="M-147.822 413.211C-147.822 397.121 -148.514 376.789 -149.293 353.937C-150.997 303.888 -153.113 241.751 -149.268 185.613C-146.469 144.735 -140.511 107.129 -128.966 79.76C-117.423 52.3942 -100.381 35.4365 -75.4596 35.4365C-63.0668 35.4365 -50.2474 42.7959 -37.2697 56.0843C-24.3041 69.3605 -11.2661 88.4684 1.55946 111.762C27.2081 158.345 51.9433 221.547 73.5259 287.981C95.1066 354.409 113.527 424.042 126.551 483.468C139.58 542.915 147.197 592.093 147.197 617.64C147.197 630.137 138.949 641.345 124.013 651.397C109.089 661.442 87.6135 670.242 61.4641 677.938C9.17446 693.328 -61.6287 704.256 -135.63 711.985C-283.623 727.443 -444.27 730.091 -494.854 730.091C-501.168 730.091 -505.168 729.243 -507.272 727.767C-508.296 727.049 -508.851 726.196 -509.037 725.212C-509.226 724.207 -509.043 722.99 -508.433 721.537C-507.207 718.619 -504.349 714.972 -500.012 710.663C-495.688 706.368 -489.948 701.465 -483.024 696.033C-461.105 678.833 -427.468 656.427 -389.791 631.33C-379.844 624.704 -369.616 617.89 -359.247 610.935C-309.624 577.652 -256.81 541.147 -216.399 506.548C-196.193 489.249 -179.068 472.409 -166.988 456.67C-154.922 440.948 -147.822 426.238 -147.822 413.211Z" stroke="url(#paint4_linear_817_2849)" stroke-width="1.27675"/>
    <path d="M-176.443 395.814C-176.443 379.724 -177.135 359.392 -177.914 336.54C-179.618 286.492 -181.734 224.355 -177.889 168.216C-175.09 127.338 -169.132 89.7321 -157.587 62.3635C-146.044 34.9977 -129.002 18.04 -104.081 18.04C-91.6879 18.04 -78.8685 25.3995 -65.8908 38.6879C-52.9252 51.964 -39.8872 71.0719 -27.0616 94.3655C-1.41294 140.948 23.3222 204.151 44.9048 270.585C66.4855 337.013 84.9056 406.645 97.93 466.072C110.959 525.518 118.576 574.697 118.576 600.244C118.576 612.74 110.328 623.948 95.3922 634.001C80.4675 644.046 58.9924 652.845 32.843 660.541C-19.4466 675.931 -90.2498 686.86 -164.251 694.589C-312.244 710.046 -472.892 712.695 -523.475 712.695C-529.789 712.695 -533.789 711.847 -535.893 710.371C-536.917 709.652 -537.473 708.799 -537.658 707.815C-537.847 706.811 -537.664 705.593 -537.054 704.141C-535.828 701.222 -532.97 697.576 -528.633 693.267C-524.309 688.972 -518.569 684.069 -511.645 678.636C-489.726 661.436 -456.089 639.03 -418.412 613.933C-408.465 607.307 -398.237 600.494 -387.868 593.539C-338.245 560.256 -285.431 523.75 -245.02 489.151C-224.815 471.852 -207.689 455.012 -195.609 439.273C-183.543 423.552 -176.443 408.841 -176.443 395.814Z" stroke="url(#paint5_linear_817_2849)" stroke-width="1.27675"/>
    <path d="M-205.076 378.413C-205.076 362.323 -205.768 341.991 -206.546 319.139C-208.251 269.09 -210.367 206.953 -206.522 150.815C-203.723 109.937 -197.765 72.3307 -186.22 44.9621C-174.677 17.5964 -157.635 0.63865 -132.714 0.638652C-120.321 0.638653 -107.501 7.99809 -94.5237 21.2865C-81.558 34.5626 -68.52 53.6705 -55.6944 76.9641C-30.0458 123.547 -5.3106 186.75 16.272 253.183C37.8527 319.612 56.2728 389.244 69.2972 448.671C82.3259 508.117 89.9427 557.296 89.9427 582.843C89.9427 595.339 81.695 606.547 66.7594 616.599C51.8347 626.644 30.3596 635.444 4.21022 643.14C-48.0794 658.53 -118.883 669.458 -192.884 677.187C-340.877 692.645 -501.524 695.293 -552.108 695.293C-558.422 695.293 -562.422 694.446 -564.526 692.969C-565.549 692.251 -566.105 691.398 -566.291 690.414C-566.48 689.409 -566.297 688.192 -565.687 686.739C-564.461 683.821 -561.603 680.174 -557.265 675.865C-552.942 671.57 -547.202 666.667 -540.278 661.235C-518.359 644.035 -484.722 621.629 -447.045 596.532C-437.098 589.906 -426.869 583.092 -416.501 576.138C-366.878 542.854 -314.064 506.349 -273.652 471.75C-253.447 454.451 -236.322 437.611 -224.242 421.872C-212.176 406.151 -205.076 391.44 -205.076 378.413Z" stroke="url(#paint6_linear_817_2849)" stroke-width="1.27675"/>
    </g>
    <defs>
    <linearGradient id="paint0_linear_817_2849" x1="-66.444" y1="800.328" x2="-66.444" y2="104.397" gradientUnits="userSpaceOnUse">
    <stop stop-color="#34E0A1"/>
    <stop offset="0.455" stop-color="#18372C"/>
    <stop offset="0.975"/>
    </linearGradient>
    <linearGradient id="paint1_linear_817_2849" x1="-95.0768" y1="782.926" x2="-95.0768" y2="86.9944" gradientUnits="userSpaceOnUse">
    <stop stop-color="#34E0A1"/>
    <stop offset="0.455" stop-color="#18372C"/>
    <stop offset="0.975"/>
    </linearGradient>
    <linearGradient id="paint2_linear_817_2849" x1="-123.702" y1="765.533" x2="-123.702" y2="69.6017" gradientUnits="userSpaceOnUse">
    <stop stop-color="#34E0A1"/>
    <stop offset="0.455" stop-color="#18372C"/>
    <stop offset="0.975"/>
    </linearGradient>
    <linearGradient id="paint3_linear_817_2849" x1="-152.323" y1="748.145" x2="-152.323" y2="52.2141" gradientUnits="userSpaceOnUse">
    <stop stop-color="#34E0A1"/>
    <stop offset="0.455" stop-color="#18372C"/>
    <stop offset="0.975"/>
    </linearGradient>
    <linearGradient id="paint4_linear_817_2849" x1="-180.956" y1="730.729" x2="-180.956" y2="34.7981" gradientUnits="userSpaceOnUse">
    <stop stop-color="#34E0A1"/>
    <stop offset="0.455" stop-color="#18372C"/>
    <stop offset="0.975"/>
    </linearGradient>
    <linearGradient id="paint5_linear_817_2849" x1="-209.577" y1="713.333" x2="-209.577" y2="17.4016" gradientUnits="userSpaceOnUse">
    <stop stop-color="#34E0A1"/>
    <stop offset="0.455" stop-color="#18372C"/>
    <stop offset="0.975"/>
    </linearGradient>
    <linearGradient id="paint6_linear_817_2849" x1="-238.21" y1="695.932" x2="-238.21" y2="0.000276432" gradientUnits="userSpaceOnUse">
    <stop stop-color="#34E0A1"/>
    <stop offset="0.455" stop-color="#18372C"/>
    <stop offset="0.975"/>
    </linearGradient>
    </defs>
    </svg>
    