<svg width="650" height="434" viewBox="0 0 650 434" fill="none" xmlns="http://www.w3.org/2000/svg">
    <g opacity="0.5">
    <path d="M99.4587 0.419405C110.836 -10.958 124.723 -25.8244 140.332 -42.5335C174.516 -79.1285 216.957 -124.562 259.372 -161.539C290.256 -188.465 321.061 -210.844 348.577 -222.033C376.09 -233.221 400.131 -233.161 417.753 -215.54C426.516 -206.776 430.377 -192.508 430.157 -173.935C429.938 -155.379 425.646 -132.649 418.244 -107.109C403.441 -56.0333 376.24 6.1482 344.526 68.3853C312.814 130.617 276.602 192.879 243.79 244.11C210.968 295.358 181.579 335.518 163.515 353.583C154.678 362.419 140.921 364.512 123.252 361.059C105.596 357.609 84.1883 348.646 60.2559 335.597C12.3994 309.505 -45.3937 267.167 -103.186 220.306C-218.763 126.589 -334.23 14.8669 -369.998 -20.9009C-374.463 -25.3655 -376.692 -28.7934 -377.136 -31.3253C-377.352 -32.5569 -377.142 -33.5533 -376.577 -34.3802C-376 -35.224 -375.01 -35.9559 -373.552 -36.5514C-370.621 -37.7479 -366.022 -38.3057 -359.908 -38.2857C-353.813 -38.2657 -346.288 -37.6733 -337.55 -36.6191C-309.889 -33.2817 -270.261 -25.3405 -225.873 -16.4454C-214.154 -14.097 -202.103 -11.6822 -189.854 -9.268C-131.231 2.28548 -68.0719 13.8175 -15.0314 17.9275C11.4878 19.9825 35.5053 20.1845 55.1759 17.597C74.8245 15.0123 90.2474 9.63074 99.4587 0.419405Z" stroke="url(#paint0_linear_817_2841)" stroke-width="1.27675"/>
    <path d="M91.5173 -32.1324C102.895 -43.5098 116.782 -58.3762 132.39 -75.0852C166.575 -111.68 209.016 -157.114 251.43 -194.091C282.315 -221.017 313.12 -243.396 340.635 -254.585C368.148 -265.773 392.19 -265.713 409.812 -248.091C418.575 -239.328 422.436 -225.06 422.216 -206.487C421.996 -187.931 417.704 -165.2 410.302 -139.66C395.5 -88.5851 368.299 -26.4036 336.584 35.8335C304.872 98.0652 268.66 160.327 235.849 211.558C203.026 262.806 173.638 302.966 155.573 321.031C146.737 329.867 132.98 331.96 115.311 328.507C97.6543 325.057 76.2469 316.094 52.3145 303.046C4.45797 276.953 -53.3351 234.616 -111.127 187.754C-226.704 94.0373 -342.172 -17.6849 -377.939 -53.4526C-382.404 -57.9173 -384.633 -61.3452 -385.077 -63.8771C-385.293 -65.1086 -385.083 -66.105 -384.518 -66.9319C-383.942 -67.7758 -382.952 -68.5076 -381.493 -69.1031C-378.562 -70.2996 -373.963 -70.8575 -367.849 -70.8374C-361.755 -70.8175 -354.229 -70.225 -345.492 -69.1709C-317.83 -65.8335 -278.202 -57.8923 -233.814 -48.9971C-222.095 -46.6488 -210.045 -44.2339 -197.795 -41.8198C-139.172 -30.2663 -76.0133 -18.7343 -22.9729 -14.6242C3.54641 -12.5693 27.5639 -12.3672 47.2345 -14.9548C66.8831 -17.5395 82.306 -22.921 91.5173 -32.1324Z" stroke="url(#paint1_linear_817_2841)" stroke-width="1.27675"/>
    <path d="M83.5749 -64.6719C94.9523 -76.0493 108.839 -90.9157 124.448 -107.625C158.632 -144.22 201.073 -189.654 243.488 -226.631C274.373 -253.556 305.177 -275.935 332.693 -287.124C360.206 -298.312 384.248 -298.253 401.869 -280.631C410.632 -271.868 414.493 -257.599 414.274 -239.026C414.054 -220.471 409.762 -197.74 402.36 -172.2C387.557 -121.125 360.357 -58.9431 328.642 3.29398C296.93 65.5256 260.718 127.788 227.906 179.019C195.084 230.266 165.695 270.427 147.631 288.491C138.795 297.327 125.037 299.421 107.368 295.968C89.7119 292.517 68.3045 283.554 44.3721 270.506C-3.48442 244.414 -61.2774 202.076 -119.07 155.214C-234.646 61.4977 -350.114 -50.2244 -385.882 -85.9922C-390.347 -90.4569 -392.576 -93.8847 -393.02 -96.4166C-393.236 -97.6482 -393.025 -98.6446 -392.461 -99.4715C-391.884 -100.315 -390.894 -101.047 -389.435 -101.643C-386.505 -102.839 -381.905 -103.397 -375.791 -103.377C-369.697 -103.357 -362.171 -102.765 -353.434 -101.71C-325.773 -98.373 -286.145 -90.4318 -241.757 -81.5367C-230.038 -79.1883 -217.987 -76.7735 -205.738 -74.3593C-147.114 -62.8058 -83.9557 -51.2738 -30.9152 -47.1638C-4.39597 -45.1088 19.6215 -44.9068 39.2921 -47.4944C58.9407 -50.079 74.3636 -55.4606 83.5749 -64.6719Z" stroke="url(#paint2_linear_817_2841)" stroke-width="1.27675"/>
    <path d="M75.6316 -97.2046C87.009 -108.582 100.896 -123.448 116.505 -140.157C150.689 -176.753 193.13 -222.186 235.545 -259.164C266.429 -286.089 297.234 -308.468 324.75 -319.657C352.263 -330.845 376.304 -330.785 393.926 -313.164C402.689 -304.401 406.55 -290.132 406.33 -271.559C406.111 -253.003 401.819 -230.273 394.417 -204.733C379.614 -153.657 352.413 -91.4758 320.699 -29.2387C288.987 32.9929 252.774 95.2552 219.963 146.486C187.141 197.734 157.752 237.894 139.687 255.959C130.851 264.795 117.094 266.888 99.4248 263.435C81.7685 259.985 60.3611 251.022 36.4288 237.973C-11.4278 211.881 -69.2208 169.543 -127.013 122.682C-242.59 28.965 -358.057 -82.7572 -393.825 -118.525C-398.29 -122.99 -400.519 -126.417 -400.963 -128.949C-401.179 -130.181 -400.969 -131.177 -400.404 -132.004C-399.827 -132.848 -398.837 -133.58 -397.379 -134.175C-394.448 -135.372 -389.849 -135.93 -383.735 -135.91C-377.641 -135.89 -370.115 -135.297 -361.377 -134.243C-333.716 -130.906 -294.088 -122.965 -249.7 -114.069C-237.981 -111.721 -225.931 -109.306 -213.681 -106.892C-155.058 -95.3385 -91.8991 -83.8065 -38.8586 -79.6965C-12.3393 -77.6416 11.6782 -77.4395 31.3487 -80.0271C50.9973 -82.6117 66.4202 -87.9933 75.6316 -97.2046Z" stroke="url(#paint3_linear_817_2841)" stroke-width="1.27675"/>
    <path d="M67.6999 -129.766C79.0773 -141.144 92.9645 -156.01 108.573 -172.719C142.757 -209.314 185.198 -254.748 227.613 -291.725C258.498 -318.65 289.302 -341.029 316.818 -352.219C344.331 -363.407 368.373 -363.347 385.994 -345.725C394.757 -336.962 398.618 -322.693 398.399 -304.121C398.179 -285.565 393.887 -262.834 386.485 -237.294C371.682 -186.219 344.482 -124.037 312.767 -61.8003C281.055 0.431403 244.843 62.6937 212.031 113.924C179.209 165.172 149.82 205.333 131.756 223.397C122.92 232.233 109.162 234.326 91.4932 230.874C73.8369 227.423 52.4295 218.46 28.4971 205.412C-19.3594 179.32 -77.1524 136.982 -134.945 90.1201C-250.521 -3.59653 -365.989 -115.319 -401.757 -151.086C-406.222 -155.551 -408.451 -158.979 -408.895 -161.511C-409.111 -162.742 -408.9 -163.739 -408.336 -164.566C-407.759 -165.41 -406.769 -166.141 -405.31 -166.737C-402.38 -167.933 -397.78 -168.491 -391.666 -168.471C-385.572 -168.451 -378.046 -167.859 -369.309 -166.805C-341.648 -163.467 -302.02 -155.526 -257.632 -146.631C-245.913 -144.283 -233.862 -141.868 -221.613 -139.454C-162.989 -127.9 -99.8307 -116.368 -46.7902 -112.258C-20.271 -110.203 3.74654 -110.001 23.4171 -112.589C43.0657 -115.173 58.4886 -120.555 67.6999 -129.766Z" stroke="url(#paint4_linear_817_2841)" stroke-width="1.27675"/>
    <path d="M59.7634 -162.306C71.1408 -173.683 85.0279 -188.549 100.636 -205.259C134.821 -241.854 177.262 -287.287 219.677 -324.265C250.561 -351.19 281.366 -373.569 308.882 -384.758C336.395 -395.946 360.436 -395.887 378.058 -378.265C386.821 -369.502 390.682 -355.233 390.462 -336.66C390.242 -318.104 385.95 -295.374 378.548 -269.834C363.746 -218.758 336.545 -156.577 304.83 -94.3398C273.118 -32.1081 236.906 30.1541 204.095 81.3849C171.272 132.633 141.884 172.793 123.819 190.857C114.983 199.694 101.226 201.787 83.5566 198.334C65.9004 194.884 44.493 185.921 20.5606 172.872C-27.2959 146.78 -85.089 104.442 -142.881 57.5805C-258.458 -36.1361 -373.926 -147.858 -409.693 -183.626C-414.158 -188.091 -416.387 -191.519 -416.831 -194.05C-417.047 -195.282 -416.837 -196.278 -416.272 -197.105C-415.696 -197.949 -414.705 -198.681 -413.247 -199.276C-410.316 -200.473 -405.717 -201.031 -399.603 -201.011C-393.509 -200.991 -385.983 -200.398 -377.246 -199.344C-349.584 -196.007 -309.956 -188.066 -265.568 -179.17C-253.849 -176.822 -241.799 -174.407 -229.549 -171.993C-170.926 -160.44 -107.767 -148.908 -54.7268 -144.798C-28.2075 -142.743 -4.18998 -142.541 15.4806 -145.128C35.1292 -147.713 50.5521 -153.094 59.7634 -162.306Z" stroke="url(#paint5_linear_817_2841)" stroke-width="1.27675"/>
    <path d="M51.822 -194.856C63.1994 -206.234 77.0865 -221.1 92.695 -237.809C126.88 -274.404 169.321 -319.838 211.735 -356.815C242.62 -383.741 273.424 -406.12 300.94 -417.309C328.453 -428.497 352.495 -428.437 370.116 -410.815C378.88 -402.052 382.74 -387.784 382.521 -369.211C382.301 -350.655 378.009 -327.925 370.607 -302.384C355.804 -251.309 328.604 -189.128 296.889 -126.891C265.177 -64.6589 228.965 -2.39663 196.153 48.8342C163.331 100.082 133.942 140.242 115.878 158.307C107.042 167.143 93.2844 169.236 75.6152 165.783C57.959 162.333 36.5516 153.37 12.6192 140.321C-35.2373 114.229 -93.0304 71.8914 -150.823 25.0298C-266.399 -68.6869 -381.867 -180.409 -417.635 -216.177C-422.099 -220.641 -424.329 -224.069 -424.773 -226.601C-424.988 -227.833 -424.778 -228.829 -424.213 -229.656C-423.637 -230.5 -422.647 -231.232 -421.188 -231.827C-418.258 -233.024 -413.658 -233.582 -407.544 -233.562C-401.45 -233.542 -393.924 -232.949 -385.187 -231.895C-357.526 -228.558 -317.898 -220.616 -273.509 -211.721C-261.791 -209.373 -249.74 -206.958 -237.49 -204.544C-178.867 -192.99 -115.709 -181.458 -62.6682 -177.348C-36.1489 -175.293 -12.1314 -175.091 7.53916 -177.679C27.1877 -180.264 42.6106 -185.645 51.822 -194.856Z" stroke="url(#paint6_linear_817_2841)" stroke-width="1.27675"/>
    </g>
    <defs>
    <linearGradient id="paint0_linear_817_2841" x1="-148.49" y1="201.51" x2="343.608" y2="-290.588" gradientUnits="userSpaceOnUse">
    <stop stop-color="#34E0A1"/>
    <stop offset="0.49" stop-color="#18372C"/>
    <stop offset="0.975"/>
    </linearGradient>
    <linearGradient id="paint1_linear_817_2841" x1="-156.432" y1="168.958" x2="335.666" y2="-323.14" gradientUnits="userSpaceOnUse">
    <stop stop-color="#34E0A1"/>
    <stop offset="0.49" stop-color="#18372C"/>
    <stop offset="0.975"/>
    </linearGradient>
    <linearGradient id="paint2_linear_817_2841" x1="-164.374" y1="136.419" x2="327.724" y2="-355.679" gradientUnits="userSpaceOnUse">
    <stop stop-color="#34E0A1"/>
    <stop offset="0.49" stop-color="#18372C"/>
    <stop offset="0.975"/>
    </linearGradient>
    <linearGradient id="paint3_linear_817_2841" x1="-172.317" y1="103.886" x2="319.78" y2="-388.212" gradientUnits="userSpaceOnUse">
    <stop stop-color="#34E0A1"/>
    <stop offset="0.49" stop-color="#18372C"/>
    <stop offset="0.975"/>
    </linearGradient>
    <linearGradient id="paint4_linear_817_2841" x1="-180.249" y1="71.3243" x2="311.849" y2="-420.773" gradientUnits="userSpaceOnUse">
    <stop stop-color="#34E0A1"/>
    <stop offset="0.49" stop-color="#18372C"/>
    <stop offset="0.975"/>
    </linearGradient>
    <linearGradient id="paint5_linear_817_2841" x1="-188.185" y1="38.7848" x2="303.912" y2="-453.313" gradientUnits="userSpaceOnUse">
    <stop stop-color="#34E0A1"/>
    <stop offset="0.49" stop-color="#18372C"/>
    <stop offset="0.975"/>
    </linearGradient>
    <linearGradient id="paint6_linear_817_2841" x1="-196.127" y1="6.23398" x2="295.971" y2="-485.864" gradientUnits="userSpaceOnUse">
    <stop stop-color="#34E0A1"/>
    <stop offset="0.49" stop-color="#18372C"/>
    <stop offset="0.975"/>
    </linearGradient>
    </defs>
    </svg>
    