<svg width="253" height="298" viewBox="0 0 253 298" fill="none" xmlns="http://www.w3.org/2000/svg">
    <g filter="url(#filter0_d_857_1918)">
    <path d="M64.1008 126.5C64.1008 148.591 82.0094 166.5 104.101 166.5C126.192 166.5 144.101 148.591 144.101 126.5C144.101 104.409 126.192 86.5 104.101 86.5C82.0094 86.5 64.1008 104.409 64.1008 126.5Z" fill="white" fill-opacity="0.39" shape-rendering="crispEdges"/>
    </g>
    <path d="M117.111 125.867C117.111 126.474 116.659 126.977 116.073 127.056L115.911 127.067L94.8161 127.066L102.437 134.656C102.907 135.123 102.908 135.883 102.441 136.353C102.015 136.78 101.349 136.82 100.878 136.472L100.744 136.356L91.0635 126.718C91.0016 126.656 90.9478 126.59 90.9022 126.519C90.8893 126.498 90.8762 126.476 90.8638 126.454C90.8523 126.435 90.842 126.415 90.8322 126.396C90.8187 126.367 90.8054 126.337 90.7934 126.306C90.7837 126.283 90.7755 126.26 90.7681 126.237C90.7592 126.208 90.7506 126.177 90.7433 126.146C90.7378 126.125 90.7334 126.104 90.7296 126.083C90.7243 126.052 90.7197 126.02 90.7165 125.987C90.7137 125.962 90.712 125.938 90.7111 125.913C90.7108 125.898 90.7105 125.883 90.7105 125.867L90.7111 125.82C90.7121 125.797 90.7137 125.773 90.716 125.75L90.7105 125.867C90.7105 125.791 90.7176 125.717 90.731 125.645C90.7341 125.628 90.7378 125.611 90.7419 125.593C90.7504 125.557 90.7603 125.522 90.7716 125.488C90.7772 125.471 90.7837 125.453 90.7906 125.435C90.8046 125.399 90.8199 125.364 90.8366 125.331C90.8444 125.315 90.8531 125.299 90.8623 125.282C90.8773 125.256 90.8927 125.23 90.9091 125.206C90.9206 125.188 90.9333 125.17 90.9467 125.152L90.9571 125.138C90.9894 125.096 91.0245 125.056 91.062 125.018L91.0634 125.017L100.743 115.377C101.213 114.91 101.973 114.911 102.44 115.381C102.866 115.808 102.903 116.474 102.553 116.944L102.437 117.078L94.8193 124.666L115.911 124.667C116.573 124.667 117.111 125.204 117.111 125.867Z" fill="white"/>
    <defs>
    <filter id="filter0_d_857_1918" x="-44.6825" y="0.379932" width="297.566" height="297.566" filterUnits="userSpaceOnUse" color-interpolation-filters="sRGB">
    <feFlood flood-opacity="0" result="BackgroundImageFix"/>
    <feColorMatrix in="SourceAlpha" type="matrix" values="0 0 0 0 0 0 0 0 0 0 0 0 0 0 0 0 0 0 127 0" result="hardAlpha"/>
    <feOffset dy="22.6632"/>
    <feGaussianBlur stdDeviation="54.3916"/>
    <feComposite in2="hardAlpha" operator="out"/>
    <feColorMatrix type="matrix" values="0 0 0 0 0 0 0 0 0 0 0 0 0 0 0 0 0 0 0.08 0"/>
    <feBlend mode="normal" in2="BackgroundImageFix" result="effect1_dropShadow_857_1918"/>
    <feBlend mode="normal" in="SourceGraphic" in2="effect1_dropShadow_857_1918" result="shape"/>
    </filter>
    </defs>
    </svg>
    