<svg
  xmlns="http://www.w3.org/2000/svg"
  width="24"
  height="25"
  viewBox="0 0 24 25"
  fill="none"
>
  <path
    d="M21 10.8921C21 17.8921 12 22.8921 12 22.8921C12 22.8921 3 17.8921 3 10.8921C3 8.50298 3.94821 6.2113 5.63604 4.52347C7.32387 2.83564 9.61305 1.88742 12 1.88742C14.3869 1.88742 16.6761 2.83564 18.364 4.52347C20.0518 6.2113 21 8.50298 21 10.8921Z"
    stroke="#34E0A1"
    strokeWidth="2"
    strokeLinecap="round"
    strokeLinejoin="round"
  />
  <path
    d="M12 13.8921C13.6569 13.8921 15 12.549 15 10.8921C15 9.23527 13.6569 7.89209 12 7.89209C10.3431 7.89209 9 9.23527 9 10.8921C9 12.549 10.3431 13.8921 12 13.8921Z"
    stroke="#34E0A1"
    strokeWidth="2"
    strokeLinecap="round"
    strokeLinejoin="round"
  />
</svg>
