<svg xmlns="http://www.w3.org/2000/svg" width="24" height="25" viewBox="0 0 24 25" fill="none">
    <path
        d="M3 5.89209V5.39209C2.86739 5.39209 2.74021 5.44477 2.64645 5.53854C2.55268 5.6323 2.5 5.75948 2.5 5.89209H3ZM21 5.89209H21.5C21.5 5.75948 21.4473 5.6323 21.3536 5.53854C21.2598 5.44477 21.1326 5.39209 21 5.39209V5.89209ZM3 6.39209H21V5.39209H3V6.39209ZM20.5 5.89209V17.8921H21.5V5.89209H20.5ZM19 19.3921H5V20.3921H19V19.3921ZM3.5 17.8921V5.89209H2.5V17.8921H3.5ZM5 19.3921C4.60218 19.3921 4.22064 19.2341 3.93934 18.9527C3.65804 18.6714 3.5 18.2899 3.5 17.8921H2.5C2.5 18.5551 2.76339 19.191 3.23223 19.6599C3.70107 20.1287 4.33696 20.3921 5 20.3921V19.3921ZM20.5 17.8921C20.5 18.2899 20.342 18.6714 20.0607 18.9527C19.7794 19.2341 19.3978 19.3921 19 19.3921V20.3921C19.663 20.3921 20.2989 20.1287 20.7678 19.6599C21.2366 19.191 21.5 18.5551 21.5 17.8921H20.5Z"
        fill="#34E0A1" />
    <path d="M3 5.89209L12 14.8921L21 5.89209" stroke="#34E0A1" stroke-linecap="round"
        stroke-linejoin="round" />
</svg>