<svg xmlns="http://www.w3.org/2000/svg" width="24" height="25" viewBox="0 0 24 25" fill="none">
    <path
        d="M8.14525 13.3041C8.95205 14.8777 10.2993 16.1468 11.9674 16.9047C12.0905 16.9597 12.2266 16.9836 12.3624 16.9738C12.4981 16.9641 12.6288 16.9211 12.7417 16.8492L15.1918 15.3034C15.3001 15.2341 15.4251 15.1918 15.5554 15.1804C15.6856 15.1691 15.8168 15.1891 15.9366 15.2386L20.5233 17.0991C20.68 17.1607 20.811 17.2693 20.896 17.4081C20.981 17.5469 21.0153 17.7083 20.9937 17.8673C20.8483 18.9389 20.2945 19.9238 19.4358 20.6376C18.5772 21.3515 17.4726 21.7454 16.3287 21.7456C12.7937 21.7456 9.40348 20.4194 6.90387 18.0586C4.40427 15.6979 3 12.496 3 9.15743C3.00026 8.07706 3.41732 7.0338 4.17314 6.22286C4.92897 5.41192 5.97176 4.88886 7.1064 4.75157C7.27481 4.73113 7.44566 4.76356 7.59265 4.84384C7.73963 4.92412 7.8546 5.0478 7.91984 5.19585L9.88974 9.53692C9.94097 9.64832 9.9624 9.7699 9.95214 9.89096C9.94189 10.012 9.90026 10.1288 9.83094 10.2311L8.19426 12.5822C8.12139 12.6885 8.07862 12.8107 8.07004 12.9371C8.06147 13.0635 8.08736 13.1899 8.14525 13.3041V13.3041Z"
        stroke="#34E0A1" stroke-width="1.32875" stroke-linecap="round" stroke-linejoin="round" />
</svg>