<svg width="226" height="244" viewBox="0 0 226 244" fill="none" xmlns="http://www.w3.org/2000/svg">
    <g filter="url(#filter0_d_857_1910)">
    <circle cx="121.899" cy="99.5" r="40" fill="#34E0A1"/>
    </g>
    <path d="M109.098 99.0625C109.098 98.455 109.549 97.9529 110.135 97.8735L110.298 97.8625L131.392 97.8635L123.771 90.2738C123.302 89.8062 123.3 89.0464 123.768 88.5768C124.193 88.1498 124.859 88.1097 125.33 88.4572L125.465 88.5731L135.145 98.2115C135.207 98.2731 135.26 98.3399 135.306 98.4103C135.319 98.4315 135.332 98.4532 135.345 98.4753C135.356 98.4943 135.366 98.514 135.376 98.5339C135.39 98.5629 135.403 98.5928 135.415 98.6234C135.425 98.6469 135.433 98.6698 135.44 98.6929C135.449 98.7215 135.458 98.752 135.465 98.783C135.471 98.8047 135.475 98.8255 135.479 98.8464C135.484 98.8775 135.489 98.9096 135.492 98.9422C135.495 98.967 135.496 98.9916 135.497 99.0162C135.497 99.0312 135.498 99.0468 135.498 99.0625L135.497 99.109C135.496 99.1325 135.495 99.1561 135.492 99.1795L135.498 99.0625C135.498 99.1382 135.491 99.2123 135.477 99.2841C135.474 99.3013 135.471 99.3189 135.466 99.3365C135.458 99.3726 135.448 99.4074 135.437 99.4415C135.431 99.4584 135.425 99.4765 135.418 99.4945C135.404 99.5306 135.388 99.565 135.372 99.5985C135.364 99.6143 135.355 99.6308 135.346 99.6472C135.331 99.6738 135.316 99.6991 135.299 99.7238C135.288 99.7413 135.275 99.7595 135.262 99.7774L135.251 99.7912C135.219 99.8334 135.184 99.8735 135.146 99.911L135.145 99.9121L125.465 109.552C124.995 110.02 124.235 110.018 123.768 109.549C123.343 109.122 123.305 108.455 123.655 107.986L123.771 107.852L131.389 100.263L110.298 100.262C109.635 100.262 109.098 99.7252 109.098 99.0625Z" fill="white"/>
    <defs>
    <filter id="filter0_d_857_1910" x="0.311739" y="0.575743" width="243.175" height="243.175" filterUnits="userSpaceOnUse" color-interpolation-filters="sRGB">
    <feFlood flood-opacity="0" result="BackgroundImageFix"/>
    <feColorMatrix in="SourceAlpha" type="matrix" values="0 0 0 0 0 0 0 0 0 0 0 0 0 0 0 0 0 0 127 0" result="hardAlpha"/>
    <feMorphology radius="27.1958" operator="erode" in="SourceAlpha" result="effect1_dropShadow_857_1910"/>
    <feOffset dy="22.6632"/>
    <feGaussianBlur stdDeviation="54.3916"/>
    <feComposite in2="hardAlpha" operator="out"/>
    <feColorMatrix type="matrix" values="0 0 0 0 0 0 0 0 0 0 0 0 0 0 0 0 0 0 0.08 0"/>
    <feBlend mode="normal" in2="BackgroundImageFix" result="effect1_dropShadow_857_1910"/>
    <feBlend mode="normal" in="SourceGraphic" in2="effect1_dropShadow_857_1910" result="shape"/>
    </filter>
    </defs>
    </svg>
    