<svg xmlns="http://www.w3.org/2000/svg" width="49" height="49" viewBox="0 0 49 49" fill="none">
    <path d="M17.4453 17.0298V26.7191C17.4491 28.137 17.8534 29.5249 18.6117 30.7229C19.37 31.9209 20.4514 32.8802 21.7312 33.4903L24.9355 35.0063L28.1399 33.4888C29.4197 32.8787 30.5011 31.9194 31.2594 30.7214C32.0177 29.5234 32.422 28.1355 32.4258 26.7176V17.0298H17.4453ZM29.4297 26.7191C29.427 27.5694 29.1842 28.4017 28.7291 29.1199C28.274 29.8382 27.6252 30.4133 26.8575 30.7788L24.9355 31.6912L23.0135 30.7818C22.2454 30.416 21.5963 29.8405 21.1412 29.1217C20.6861 28.4028 20.4435 27.5699 20.4414 26.7191V20.0259H29.4297V26.7191Z" fill="white"/>
    <path d="M46.5302 26.6376C47.0919 26.0758 47.4074 25.3138 47.4074 24.5194C47.4074 23.7249 47.0919 22.963 46.5302 22.4011L37.861 13.732L42.2053 9.44456C42.8461 9.60407 43.5216 9.54765 44.1271 9.28403C44.7325 9.02041 45.234 8.56434 45.5538 7.98658C45.8736 7.40882 45.9937 6.74167 45.8956 6.08865C45.7975 5.43564 45.4866 4.83326 45.0111 4.37499C44.5357 3.91672 43.9223 3.62817 43.2661 3.55412C42.6099 3.48007 41.9476 3.62466 41.382 3.96545C40.8164 4.30624 40.3791 4.82418 40.1379 5.43891C39.8967 6.05364 39.8652 6.73078 40.0481 7.36527L35.7427 11.6137L27.0556 2.92507C26.4937 2.36339 25.7318 2.04785 24.9374 2.04785C24.1429 2.04785 23.381 2.36339 22.8191 2.92507L14.1499 11.5972L9.86253 7.24992C10.0212 6.60898 9.96395 5.93359 9.69962 5.32852C9.43529 4.72344 8.97866 4.22252 8.40058 3.90345C7.8225 3.58438 7.15527 3.465 6.50242 3.56384C5.84957 3.66268 5.24758 3.9742 4.78985 4.45008C4.33212 4.92597 4.04423 5.53961 3.97084 6.19581C3.89745 6.85201 4.04267 7.51409 4.38397 8.07933C4.72527 8.64458 5.24356 9.08139 5.85845 9.322C6.47334 9.56262 7.15045 9.59359 7.78474 9.4101L12.0317 13.714L3.34303 22.4011C2.78135 22.963 2.46582 23.7249 2.46582 24.5194C2.46582 25.3138 2.78135 26.0758 3.34303 26.6376L12.0317 35.3248L7.78474 39.6287C7.15179 39.4464 6.47639 39.4779 5.86321 39.7185C5.25003 39.9591 4.73333 40.3952 4.39319 40.9592C4.05306 41.5233 3.90848 42.1838 3.98188 42.8384C4.05527 43.4929 4.34254 44.105 4.79916 44.5797C5.25577 45.0545 5.85622 45.3653 6.50745 45.4641C7.15868 45.5629 7.8243 45.4441 8.40116 45.1261C8.97801 44.8082 9.43387 44.3088 9.69808 43.7054C9.96229 43.1021 10.0201 42.4284 9.86253 41.7888L14.1499 37.4445L22.8191 46.1122C23.381 46.6739 24.1429 46.9894 24.9374 46.9894C25.7318 46.9894 26.4937 46.6739 27.0556 46.1122L35.7443 37.425L40.0466 41.6735C39.8643 42.3064 39.8959 42.9818 40.1365 43.595C40.377 44.2082 40.8131 44.7249 41.3772 45.065C41.9412 45.4052 42.6017 45.5498 43.2563 45.4764C43.9109 45.403 44.523 45.1157 44.9977 44.6591C45.4724 44.2025 45.7833 43.602 45.882 42.9508C45.9808 42.2996 45.862 41.6339 45.5441 41.0571C45.2261 40.4802 44.7268 40.0244 44.1234 39.7602C43.52 39.4959 42.8464 39.4381 42.2068 39.5957L37.8625 35.3068L46.5302 26.6376ZM24.9374 43.994L5.46277 24.5194L24.9374 5.0448L44.4119 24.5194L24.9374 43.994Z" fill="white"/>
    </svg>